{"title":"Pirates.Of.The.Caribbean.At.Worlds.End.2007.DVDRip.XviD[ENG]-NWO","uid":5534691,"size":731581411,"categoryP":"video","categoryS":"movies","magnet":"?xt=urn:btih:541b55643798ed9fa2ee9703a510350f3354eb8b&amp;dn=Pirates.Of.The.Caribbean.At.Worlds.End.2007.DVDRip.XviD%5BENG%5D-NWO&amp;tr=udp%3A%2F%2Ftracker.openbittorrent.com%3A80&amp;tr=udp%3A%2F%2Fopen.demonii.com%3A1337&amp;tr=udp%3A%2F%2Ftracker.coppersurfer.tk%3A6969&amp;tr=udp%3A%2F%2Fexodus.desync.com%3A6969","seeders":5,"leechers":0,"uploader":"TerraWatt","files":3,"time":1273030996,"description":"Format : AVI\nFormat/Info : Audio Video Interleave\nFile size : 697 MiB\nDuration : 2h 48mn\nOverall bit rate : 578 Kbps\nWriting application : VirtualDubMod 1.5.10.2 (build 2540/release)\nWriting library : VirtualDubMod build 2540/release\n\nVideo\nID : 0\nFormat : MPEG-4 Visual\nFormat profile : Advanced Simple@L5\nFormat settings, BVOP : Yes\nFormat settings, QPel : No\nFormat settings, GMC : No warppoints\nFormat settings, Matrix : Default (H.263)\nCodec ID : DIVX\nCodec ID/Info : Project Mayo\nCodec ID/Hint : DivX 4\nDuration : 2h 48mn\nBit rate : 459 Kbps\nWidth : 656 pixels\nHeight : 272 pixels\nDisplay aspect ratio : 2.40:1\nFrame rate : 23.976 fps\nResolution : 8 bits\nColorimetry : 4:2:0\nScan type : Progressive\nBits/(Pixel*Frame) : 0.107\nStream size : 554 MiB (79%)\nWriting library : XviD 1.2.1 (UTC 2008-12-04)\n\nAudio\nID : 1\nFormat : MPEG Audio\nFormat version : Version 1\nFormat profile : Layer 3\nFormat_Settings_Mode : Joint stereo\nFormat_Settings_ModeExtension : MS Stereo\nCodec ID : 55\nCodec ID/Hint : MP3\nDuration : 2h 48mn\nBit rate mode : Variable\nBit rate : 107 Kbps\nNominal bit rate : 106 Kbps\nChannel(s) : 2 channels\nSampling rate : 44.1 KHz\nVideo delay : 6s 792ms\nStream size : 129 MiB (18%)\nAlignment : Split accross interleaves\nInterleave, duration : 26 ms (0.63 video frame)\nInterleave, preload duration : 1726 ms\nWriting library : LAME3.90.\nEncoding settings : -m j -V 4 -q 2 -lowpass 16 --abr 106","torrent":{"xt":"urn:btih:541b55643798ed9fa2ee9703a510350f3354eb8b","amp;dn":"Pirates.Of.The.Caribbean.At.Worlds.End.2007.DVDRip.XviD%5BENG%5D-NWO","amp;tr":["udp%3A%2F%2Ftracker.openbittorrent.com%3A80","udp%3A%2F%2Fopen.demonii.com%3A1337","udp%3A%2F%2Ftracker.coppersurfer.tk%3A6969","udp%3A%2F%2Fexodus.desync.com%3A6969"],"infoHash":"541b55643798ed9fa2ee9703a510350f3354eb8b","infoHashBuffer":{"type":"Buffer","data":[84,27,85,100,55,152,237,159,162,238,151,3,165,16,53,15,51,84,235,139]},"announce":[],"urlList":[]}}